<svg width="52" height="95" viewBox="0 0 52 95" fill="none" xmlns="http://www.w3.org/2000/svg">
<path d="M46.5458 42.6312C50.4882 37.6501 52.6699 31.2032 52.1446 24.2297C51.1744 11.3452 40.7672 0.951358 27.9606 0.0642489C12.7025 -0.99364 0 11.1507 0 26.279C0 32.5789 2.20543 38.357 5.87325 42.8827C7.35457 44.7091 7.6622 47.2376 6.59735 49.3391C6.38438 49.7613 6.17141 50.1883 5.99156 50.6627C3.53531 57.1191 10.6864 62.214 11.9169 56.991C12.3759 55.046 11.4815 53.3714 12.4659 52.7832C13.9093 52.6409 13.3698 55.677 13.0432 61.4598C12.5747 63.7606 12.2245 65.2359 12.7593 66.531C13.4266 68.1534 16.1006 69.0168 16.3135 65.4399C16.4082 63.8507 16.2709 62.2188 16.4839 61.7586C16.6685 61.3554 17.1465 61.047 17.5535 61.2178C18.7461 61.7112 18.4906 66.5832 18.4906 67.921C18.1593 78.2721 16.2946 82.7599 17.5771 88.4952C18.022 90.4829 18.9023 92.4611 20.7812 93.5048C21.6094 93.965 22.5938 94.1357 23.5119 93.908C26.4509 93.187 26.91 89.5247 26.8816 86.6166C26.626 61.0755 26.2853 61.7539 27.7003 59.9939C28.3913 59.1353 29.6455 58.8743 30.5399 59.51C31.3682 60.0983 31.3019 60.9569 31.2214 61.7539C30.0856 73.4428 29.5177 75.4638 31.07 76.7778C31.7231 77.3328 32.627 77.5226 33.46 77.3281C35.8311 76.7731 37.3313 74.5672 37.8756 72.2758C38.4766 69.7663 38.2116 68.2151 37.3171 54.9417C37.0521 51.0469 40.3697 51.73 40.0715 54.6807C39.9485 55.8999 39.5415 57.3041 40.5779 58.1485C41.321 58.7557 42.4142 58.6039 43.1241 57.9588C44.3783 56.8202 44.3546 55.0982 44.2316 53.528C44.1748 52.8069 44.1038 52.0906 44.0186 51.3742C43.6494 48.2243 44.5865 45.1076 46.5458 42.6312Z" fill="url(#paint0_linear_65_657)"/>
<path d="M41.78 68.2102C41.8794 68.7035 42.1066 69.2681 42.594 69.3629C43.02 69.4483 43.4223 69.121 43.6589 68.7557C44.099 68.0868 44.2173 67.2519 44.2173 66.4502C44.2173 65.7528 44.1038 64.9938 43.6021 64.5099C41.5339 62.5317 41.6002 67.3183 41.78 68.2102Z" fill="url(#paint1_linear_65_657)"/>
<path d="M6.13357 72.456C5.99159 73.5898 5.88747 74.7757 6.44593 75.8242C6.66363 76.2321 6.99019 76.5879 7.39719 76.8061C8.67028 77.475 9.86765 76.5832 10.5492 75.5538C11.33 74.363 11.6708 72.8924 11.4957 71.4787C11.4152 70.8478 10.6391 68.1201 9.92444 65.6959C9.58842 64.5526 7.96512 64.5906 7.68116 65.7481C6.99965 68.5043 6.21876 71.7586 6.13357 72.456Z" fill="url(#paint2_linear_65_657)"/>
<path d="M10.1279 61.7915C10.1279 62.4889 9.5647 63.0581 8.869 63.0581C8.1733 63.0581 7.61011 62.4889 7.61011 61.7915C7.61011 61.0942 8.1733 60.5249 8.869 60.5249C9.5647 60.5249 10.1279 61.0942 10.1279 61.7915Z" fill="url(#paint3_linear_65_657)"/>
<path d="M14.7943 72.2042C14.7943 72.6074 14.4677 72.9348 14.0702 72.9348C13.6679 72.9348 13.3461 72.6074 13.3461 72.2042C13.3461 71.801 13.6726 71.4736 14.0702 71.4736C14.4677 71.4736 14.7943 71.801 14.7943 72.2042Z" fill="url(#paint4_linear_65_657)"/>
<path d="M43.7914 59.7325C43.7914 60.0456 43.5406 60.297 43.2282 60.297C42.9159 60.297 42.665 60.0456 42.665 59.7325C42.665 59.4194 42.9159 59.168 43.2282 59.168C43.5406 59.168 43.7914 59.4194 43.7914 59.7325Z" fill="url(#paint5_linear_65_657)"/>
<defs>
<linearGradient id="paint0_linear_65_657" x1="24.2882" y1="111.295" x2="25.9057" y2="36.2598" gradientUnits="userSpaceOnUse">
<stop offset="0.2626" stop-color="#780000"/>
<stop offset="1" stop-color="#EC0000"/>
</linearGradient>
<linearGradient id="paint1_linear_65_657" x1="41.9933" y1="111.677" x2="43.6108" y2="36.6415" gradientUnits="userSpaceOnUse">
<stop offset="0.2626" stop-color="#780000"/>
<stop offset="1" stop-color="#EC0000"/>
</linearGradient>
<linearGradient id="paint2_linear_65_657" x1="7.96441" y1="110.943" x2="9.58197" y2="35.9077" gradientUnits="userSpaceOnUse">
<stop offset="0.2626" stop-color="#780000"/>
<stop offset="1" stop-color="#EC0000"/>
</linearGradient>
<linearGradient id="paint3_linear_65_657" x1="7.81442" y1="110.94" x2="9.43193" y2="35.9045" gradientUnits="userSpaceOnUse">
<stop offset="0.2626" stop-color="#780000"/>
<stop offset="1" stop-color="#EC0000"/>
</linearGradient>
<linearGradient id="paint4_linear_65_657" x1="13.2356" y1="111.057" x2="14.8532" y2="36.021" gradientUnits="userSpaceOnUse">
<stop offset="0.2626" stop-color="#780000"/>
<stop offset="1" stop-color="#EC0000"/>
</linearGradient>
<linearGradient id="paint5_linear_65_657" x1="42.1151" y1="111.679" x2="43.7326" y2="36.6436" gradientUnits="userSpaceOnUse">
<stop offset="0.2626" stop-color="#780000"/>
<stop offset="1" stop-color="#EC0000"/>
</linearGradient>
</defs>
</svg>
