<svg width="25" height="24" viewBox="0 0 25 24" fill="none" xmlns="http://www.w3.org/2000/svg">
<path d="M3.58962 0.171387L23.9531 20.536C24.2709 20.8537 24.4495 21.2845 24.4496 21.7339C24.4497 22.1832 24.2713 22.6142 23.9537 22.9319C23.636 23.2497 23.2052 23.4283 22.7558 23.4284C22.3065 23.4286 21.8755 23.2502 21.5577 22.9325L16.3672 17.7408L12.3738 21.7331L7.72082 17.0802V20.0391C7.72082 20.3386 7.60183 20.6259 7.39004 20.8377C7.17824 21.0495 6.89098 21.1685 6.59146 21.1685C6.29193 21.1685 6.00468 21.0495 5.79288 20.8377C5.58108 20.6259 5.4621 20.3386 5.4621 20.0391V15.5217C5.46178 15.2338 5.35156 14.9569 5.15395 14.7476C4.95635 14.5383 4.68628 14.4124 4.39892 14.3955C4.11157 14.3786 3.82862 14.4721 3.60788 14.6569C3.38714 14.8416 3.24528 15.1037 3.21128 15.3895L3.20338 15.5217V16.651C3.20338 16.9505 3.08439 17.2378 2.8726 17.4496C2.6608 17.6614 2.37354 17.7804 2.07402 17.7804C1.77449 17.7804 1.48724 17.6614 1.27544 17.4496C1.06364 17.2378 0.944657 16.9505 0.944657 16.651V6.72845C0.897741 4.37136 1.77679 2.08981 3.39311 0.373542L3.58962 0.171387ZM3.8618 3.63852L3.8042 3.76275C3.46501 4.51204 3.26524 5.31687 3.21467 6.1378L3.20338 6.48677L3.20225 6.62229C3.21584 8.29838 3.8518 9.9096 4.98664 11.1431L5.18653 11.3521L12.3727 18.5382L15.5676 15.3443L3.8618 3.63852Z" fill="#CD3939"/>
</svg>
