<svg width="21" height="21" viewBox="0 0 21 21" fill="none" xmlns="http://www.w3.org/2000/svg">
<path d="M3.79929 1.23193L19.5764 17.0099C19.8226 17.256 19.961 17.5899 19.9611 17.938C19.9612 18.2861 19.823 18.62 19.5769 18.8662C19.3307 19.1125 18.9969 19.2508 18.6488 19.2509C18.3007 19.251 17.9668 19.1128 17.7205 18.8667L13.699 14.8443L10.605 17.9374L7.00004 14.3324V16.6249C7.00004 16.857 6.90785 17.0796 6.74376 17.2437C6.57966 17.4077 6.35711 17.4999 6.12504 17.4999C5.89298 17.4999 5.67042 17.4077 5.50632 17.2437C5.34223 17.0796 5.25004 16.857 5.25004 16.6249V13.1249C5.24979 12.9019 5.1644 12.6874 5.0113 12.5252C4.8582 12.3631 4.64896 12.2655 4.42632 12.2524C4.20368 12.2393 3.98446 12.3118 3.81344 12.4549C3.64242 12.5981 3.53251 12.8011 3.50617 13.0226L3.50004 13.1249V13.9999C3.50004 14.232 3.40785 14.4546 3.24376 14.6187C3.07967 14.7827 2.85711 14.8749 2.62504 14.8749C2.39298 14.8749 2.17042 14.7827 2.00632 14.6187C1.84223 14.4546 1.75004 14.232 1.75004 13.9999V6.31218C1.71369 4.48597 2.39475 2.71828 3.64704 1.38856L3.79929 1.23193ZM4.01017 3.91818L3.96554 4.01443C3.70275 4.59496 3.54797 5.21853 3.50879 5.85456L3.50004 6.12493L3.49917 6.22993C3.50969 7.52852 4.00242 8.77686 4.88167 9.73256L5.03654 9.89443L10.6042 15.4621L13.0795 12.9876L4.01017 3.91818Z" fill="#CD3939"/>
</svg>
