<svg width="196" height="102" viewBox="0 0 196 102" fill="none" xmlns="http://www.w3.org/2000/svg">
<g clip-path="url(#clip0_3736_2)">
<path d="M140.193 73.892C141.02 76.6985 140.501 80.8465 140.582 82.8488C140.651 84.5191 140.398 85.8377 140.093 87.3451C139.71 89.2368 139.889 90.6075 142.181 90.461C144.117 90.3373 144.522 89.2628 143.997 87.5405C143.42 85.6521 143.163 83.6172 143.031 81.6474C142.907 79.8111 143.455 76.8548 144.58 75.3376C145.774 73.7259 148.215 73.3287 149.136 71.4501C151.017 67.6017 148.264 64.7268 152.855 62.1221C157.109 59.7062 156.406 62.0472 155.443 65.4007C154.953 67.11 155.268 70.5287 157.962 69.0831C160.533 67.7059 158.597 64.8114 158.166 63.0988C157.42 60.123 159.476 58.8239 160.433 56.3723C160.939 55.0764 160.997 54.0899 160.997 51.0034C156.367 51.0001 54.1585 51.0001 39.0293 51.0034C38.958 51.0034 39.0423 54.8322 39.065 57.4532C39.0844 59.6769 39.1039 62.9751 39.5967 66.3351C40.3295 71.3361 39.2498 75.992 39.3406 81.0418C39.36 82.1195 39.4573 86.3489 41.6978 85.0791C43.0564 84.3107 42.5441 79.3618 42.4793 78.0009C42.3334 74.8427 40.9942 70.4375 42.6155 67.4714C43.8379 65.2347 47.1095 65.2086 48.1503 62.8188C48.9415 61.0086 50.1314 56.7141 52.6508 56.8053C55.8414 56.9192 55.141 61.129 55.1442 63.1379C55.1475 66.3807 55.3355 70.1152 57.8192 72.5636C58.9995 73.7292 60.598 73.7878 61.4184 75.1162C62.6116 77.0599 62.9164 83.1484 62.9228 85.473C62.9261 87.6317 62.2387 89.4256 62.4559 91.6103C62.6894 93.9806 63.6816 94.9606 65.5784 92.828C67.2158 90.9852 65.5525 87.5633 65.2477 85.4209C64.8197 82.4256 64.2717 78.2516 67.8157 76.9655C69.6217 76.3111 69.3656 77.5906 70.5912 78.1181C75.7143 80.3288 75.2506 71.6064 76.4438 69.3208C77.9516 66.4263 80.1434 68.8161 81.8327 69.4543C83.7231 70.1705 85.7334 67.0352 86.5473 70.3398C87.0693 72.4627 85.4254 74.5952 85.7399 76.7376C85.9279 78.0236 86.2554 79.4823 87.6367 79.6158C88.6484 79.7134 90.3312 78.5837 90.5614 77.5841C91.0672 75.4125 89.9551 72.8338 89.5562 70.7143C89.0796 68.178 88.2884 65.2444 89.3098 62.796C90.7754 59.283 94.1281 56.8378 97.8536 57.0202C99.6629 57.1081 101.751 58.1369 103.239 59.0974C105.353 60.4649 105.113 62.5193 106.774 64.03C110.13 67.0905 111.786 61.816 114.821 62.2458C116.079 62.4249 116.66 63.7891 118.103 63.7337C119.458 63.6816 120.145 62.2653 121.387 62.0439C126.637 61.1063 125.878 69.7277 125.599 72.4464C125.45 73.918 125.362 75.4776 126.857 76.0929C128.219 76.6497 129.925 75.6729 130.135 74.1427C130.437 71.9808 128.154 68.1975 129.681 66.2831C131.604 63.8705 134.004 67.9403 134.866 69.3208C135.881 70.9487 136.234 70.6817 137.904 71.1766C139.104 71.525 139.801 72.5571 140.193 73.892Z" fill="url(#paint0_linear_3736_2)"/>
</g>
<path d="M44.0515 43.8837C47.9938 38.9026 50.1756 32.4556 49.6502 25.4821C48.68 12.5977 38.2729 2.2038 25.4663 1.3167C10.2081 0.258807 0.00564575 -1.37585 0.00564575 13.7524C0.00564575 20.0523 -0.288928 39.6094 3.37889 44.1351C4.86022 45.9615 5.16784 48.49 4.10299 50.5916C3.89002 51.0138 3.67705 51.4407 3.49721 51.9151C1.04095 58.3716 8.19202 63.4665 9.42252 58.2435C9.88159 56.2985 8.98711 54.6239 9.97151 54.0356C11.415 53.8933 10.8754 56.9294 10.5489 62.7122C10.0804 65.013 9.73014 66.4884 10.2649 67.7834C10.9322 69.4059 13.6062 70.2692 13.8192 66.6924C13.9138 65.1031 13.7766 63.4712 13.9895 63.0111C14.1741 62.6078 14.6521 62.2995 15.0591 62.4703C16.2518 62.9636 15.9962 67.8356 15.9962 69.1734C15.6649 79.5246 13.8002 84.0123 15.0828 89.7477C15.5277 91.7354 16.4079 93.7136 18.2868 94.7572C19.115 95.2174 20.0994 95.3882 21.0176 95.1605C23.9566 94.4394 24.4156 90.7771 24.3872 87.8691C24.1317 62.328 23.7909 63.0063 25.206 61.2463C25.8969 60.3877 27.1511 60.1268 28.0456 60.7625C28.8738 61.3507 28.8075 62.2094 28.7271 63.0063C27.5912 74.6953 27.0233 76.7162 28.5756 78.0303C29.2288 78.5853 30.1327 78.7751 30.9656 78.5806C33.3367 78.0255 34.837 75.8196 35.3812 73.5283C35.9823 71.0188 35.7172 69.4675 34.8228 56.1941C34.5577 52.2994 37.8753 52.9825 37.5772 55.9332C37.4541 57.1524 37.0471 58.5566 38.0836 59.401C38.8266 60.0082 39.9199 59.8564 40.6298 59.2112C41.8839 58.0727 41.8603 56.3506 41.7372 54.7804C41.6804 54.0593 41.6094 53.343 41.5242 52.6267C41.1551 49.4767 42.0922 46.36 44.0515 43.8837Z" fill="url(#paint1_linear_3736_2)"/>
<path d="M39.2856 69.4625C39.385 69.9559 39.6122 70.5204 40.0997 70.6153C40.5256 70.7006 40.9279 70.3733 41.1645 70.008C41.6046 69.3391 41.723 68.5042 41.723 67.7025C41.723 67.0052 41.6094 66.2461 41.1077 65.7623C39.0395 63.784 39.1058 68.5706 39.2856 69.4625Z" fill="url(#paint2_linear_3736_2)"/>
<path d="M3.63919 73.7082C3.49721 74.842 3.39309 76.028 3.95154 77.0764C4.16925 77.4844 4.4958 77.8402 4.90281 78.0584C6.1759 78.7273 7.37327 77.8354 8.05477 76.806C8.83566 75.6153 9.17641 74.1447 9.00131 72.731C8.92085 72.1001 8.14469 69.3723 7.43006 66.9482C7.09404 65.8049 5.47073 65.8429 5.18677 67.0004C4.50527 69.7566 3.72437 73.0109 3.63919 73.7082Z" fill="url(#paint3_linear_3736_2)"/>
<path d="M7.6335 63.044C7.6335 63.7414 7.07032 64.3106 6.37461 64.3106C5.67891 64.3106 5.11572 63.7414 5.11572 63.044C5.11572 62.3467 5.67891 61.7774 6.37461 61.7774C7.07032 61.7774 7.6335 62.3467 7.6335 63.044Z" fill="url(#paint4_linear_3736_2)"/>
<path d="M12.3 73.4569C12.3 73.8601 11.9734 74.1874 11.5759 74.1874C11.1736 74.1874 10.8518 73.8601 10.8518 73.4569C10.8518 73.0537 11.1784 72.7263 11.5759 72.7263C11.9734 72.7263 12.3 73.0537 12.3 73.4569Z" fill="url(#paint5_linear_3736_2)"/>
<path d="M41.297 60.9851C41.297 61.2982 41.0462 61.5496 40.7338 61.5496C40.4215 61.5496 40.1707 61.2982 40.1707 60.9851C40.1707 60.672 40.4215 60.4206 40.7338 60.4206C41.0462 60.4206 41.297 60.672 41.297 60.9851Z" fill="url(#paint6_linear_3736_2)"/>
<path d="M135.42 57.3834C132.336 53.4839 130.629 48.4369 131.04 42.9776C131.799 32.8909 139.941 24.7539 149.961 24.0594C161.899 23.2313 195.979 31.1341 195.979 42.9774C195.979 47.9094 194.253 52.4328 191.384 55.9758C190.225 57.4056 189.984 59.385 190.817 61.0303C190.984 61.3608 191.15 61.695 191.291 62.0664C193.213 67.1209 187.618 71.1095 186.655 67.0206C186.296 65.498 186.996 64.187 186.226 63.7265C185.096 63.6151 185.518 65.9919 185.774 70.519C186.141 72.3202 186.415 73.4752 185.996 74.4891C185.474 75.7592 183.382 76.4351 183.215 73.6349C183.141 72.3908 183.249 71.1133 183.082 70.753C182.938 70.4373 182.564 70.1959 182.245 70.3296C181.312 70.7159 181.512 74.53 181.512 75.5773C181.771 83.6808 183.23 87.194 182.227 91.684C181.879 93.2401 181.19 94.7888 179.72 95.6058C179.072 95.966 178.302 96.0997 177.583 95.9215C175.284 95.357 174.925 92.4899 174.947 90.2134C175.147 70.2182 175.413 70.7493 174.306 69.3715C173.766 68.6993 172.784 68.495 172.084 68.9927C171.436 69.4532 171.488 70.1254 171.551 70.7493C172.44 79.9001 172.884 81.4822 171.67 82.5109C171.159 82.9454 170.451 83.094 169.8 82.9417C167.945 82.5072 166.771 80.7803 166.345 78.9865C165.875 77.0219 166.082 75.8075 166.782 65.4163C166.989 62.3672 164.394 62.902 164.627 65.212C164.723 66.1665 165.042 67.2657 164.231 67.9268C163.649 68.4022 162.794 68.2833 162.239 67.7782C161.257 66.8869 161.276 65.5388 161.372 64.3096C161.417 63.7451 133.711 56.5366 133.778 55.9758C134.067 53.5099 136.953 59.322 135.42 57.3834Z" fill="url(#paint7_linear_3736_2)"/>
<path d="M149.759 92.2099C149.858 92.7033 150.086 93.2678 150.573 93.3627C150.999 93.4481 151.401 93.1208 151.638 92.7555C152.078 92.0866 152.196 91.2517 152.196 90.4499C152.196 89.7526 152.083 88.9936 151.581 88.5097C149.513 86.5315 149.579 91.3181 149.759 92.2099Z" fill="url(#paint8_linear_3736_2)"/>
<path d="M114.113 96.4557C113.971 97.5895 113.866 98.7754 114.425 99.8238C114.643 100.232 114.969 100.588 115.376 100.806C116.649 101.475 117.847 100.583 118.528 99.5534C119.309 98.3627 119.65 96.8921 119.475 95.4784C119.394 94.8475 118.618 92.1198 117.903 89.6956C117.567 88.5523 115.944 88.5903 115.66 89.7478C114.979 92.504 114.198 95.7583 114.113 96.4557Z" fill="url(#paint9_linear_3736_2)"/>
<path d="M118.107 85.7915C118.107 86.4888 117.544 87.0581 116.848 87.0581C116.152 87.0581 115.589 86.4888 115.589 85.7915C115.589 85.0941 116.152 84.5248 116.848 84.5248C117.544 84.5248 118.107 85.0941 118.107 85.7915Z" fill="url(#paint10_linear_3736_2)"/>
<path d="M122.773 96.2043C122.773 96.6076 122.447 96.9349 122.049 96.9349C121.647 96.9349 121.325 96.6076 121.325 96.2043C121.325 95.8011 121.652 95.4738 122.049 95.4738C122.447 95.4738 122.773 95.8011 122.773 96.2043Z" fill="url(#paint11_linear_3736_2)"/>
<path d="M151.77 83.7326C151.77 84.0456 151.52 84.2971 151.207 84.2971C150.895 84.2971 150.644 84.0456 150.644 83.7326C150.644 83.4195 150.895 83.168 151.207 83.168C151.52 83.168 151.77 83.4195 151.77 83.7326Z" fill="url(#paint12_linear_3736_2)"/>
<defs>
<linearGradient id="paint0_linear_3736_2" x1="100.951" y1="93.3807" x2="99.839" y2="54.8953" gradientUnits="userSpaceOnUse">
<stop stop-color="#780000"/>
<stop offset="1" stop-color="#CE0101"/>
</linearGradient>
<linearGradient id="paint1_linear_3736_2" x1="21.7938" y1="112.548" x2="23.4114" y2="37.5123" gradientUnits="userSpaceOnUse">
<stop offset="0.2626" stop-color="#780000"/>
<stop offset="1" stop-color="#EC0000"/>
</linearGradient>
<linearGradient id="paint2_linear_3736_2" x1="39.4989" y1="112.929" x2="41.1164" y2="37.8938" gradientUnits="userSpaceOnUse">
<stop offset="0.2626" stop-color="#780000"/>
<stop offset="1" stop-color="#EC0000"/>
</linearGradient>
<linearGradient id="paint3_linear_3736_2" x1="5.47002" y1="112.196" x2="7.08758" y2="37.16" gradientUnits="userSpaceOnUse">
<stop offset="0.2626" stop-color="#780000"/>
<stop offset="1" stop-color="#EC0000"/>
</linearGradient>
<linearGradient id="paint4_linear_3736_2" x1="5.32003" y1="112.193" x2="6.93754" y2="37.157" gradientUnits="userSpaceOnUse">
<stop offset="0.2626" stop-color="#780000"/>
<stop offset="1" stop-color="#EC0000"/>
</linearGradient>
<linearGradient id="paint5_linear_3736_2" x1="10.7413" y1="112.309" x2="12.3589" y2="37.2736" gradientUnits="userSpaceOnUse">
<stop offset="0.2626" stop-color="#780000"/>
<stop offset="1" stop-color="#EC0000"/>
</linearGradient>
<linearGradient id="paint6_linear_3736_2" x1="39.6207" y1="112.932" x2="41.2382" y2="37.8962" gradientUnits="userSpaceOnUse">
<stop offset="0.2626" stop-color="#780000"/>
<stop offset="1" stop-color="#EC0000"/>
</linearGradient>
<linearGradient id="paint7_linear_3736_2" x1="176.976" y1="109.533" x2="175.709" y2="50.7911" gradientUnits="userSpaceOnUse">
<stop offset="0.2626" stop-color="#780000"/>
<stop offset="1" stop-color="#EC0000"/>
</linearGradient>
<linearGradient id="paint8_linear_3736_2" x1="149.972" y1="135.677" x2="151.59" y2="60.6412" gradientUnits="userSpaceOnUse">
<stop offset="0.2626" stop-color="#780000"/>
<stop offset="1" stop-color="#EC0000"/>
</linearGradient>
<linearGradient id="paint9_linear_3736_2" x1="115.943" y1="134.943" x2="117.561" y2="59.9074" gradientUnits="userSpaceOnUse">
<stop offset="0.2626" stop-color="#780000"/>
<stop offset="1" stop-color="#EC0000"/>
</linearGradient>
<linearGradient id="paint10_linear_3736_2" x1="115.793" y1="134.94" x2="117.411" y2="59.9045" gradientUnits="userSpaceOnUse">
<stop offset="0.2626" stop-color="#780000"/>
<stop offset="1" stop-color="#EC0000"/>
</linearGradient>
<linearGradient id="paint11_linear_3736_2" x1="121.215" y1="135.057" x2="122.832" y2="60.0211" gradientUnits="userSpaceOnUse">
<stop offset="0.2626" stop-color="#780000"/>
<stop offset="1" stop-color="#EC0000"/>
</linearGradient>
<linearGradient id="paint12_linear_3736_2" x1="150.094" y1="135.679" x2="151.712" y2="60.6437" gradientUnits="userSpaceOnUse">
<stop offset="0.2626" stop-color="#780000"/>
<stop offset="1" stop-color="#EC0000"/>
</linearGradient>
<clipPath id="clip0_3736_2">
<rect width="122" height="43" fill="white" transform="translate(39 51)"/>
</clipPath>
</defs>
</svg>
